<mxfile host="app.diagrams.net" modified="2023-12-11T00:17:26.505Z" agent="Mozilla/5.0 (Macintosh; Intel Mac OS X 10_15_7) AppleWebKit/605.1.15 (KHTML, like Gecko) Version/16.2 Safari/605.1.15" etag="f7HbIbrURjTH18xj2t_L" version="22.1.7" type="github">
  <diagram id="prtHgNgQTEPvFCAcTncT" name="Page-1">
    <mxGraphModel dx="1241" dy="1901" grid="1" gridSize="10" guides="1" tooltips="1" connect="1" arrows="1" fold="1" page="1" pageScale="1" pageWidth="827" pageHeight="1169" math="0" shadow="0">
      <root>
        <mxCell id="0" />
        <mxCell id="1" parent="0" />
        <mxCell id="HGr9DbVzWXyohjFz5z2B-7" style="edgeStyle=orthogonalEdgeStyle;rounded=0;orthogonalLoop=1;jettySize=auto;html=1;entryX=0.5;entryY=0;entryDx=0;entryDy=0;" edge="1" parent="1" source="HGr9DbVzWXyohjFz5z2B-3" target="HGr9DbVzWXyohjFz5z2B-10">
          <mxGeometry relative="1" as="geometry">
            <mxPoint x="420" y="-910" as="targetPoint" />
          </mxGeometry>
        </mxCell>
        <mxCell id="HGr9DbVzWXyohjFz5z2B-8" value="Children" style="edgeLabel;html=1;align=center;verticalAlign=middle;resizable=0;points=[];" vertex="1" connectable="0" parent="HGr9DbVzWXyohjFz5z2B-7">
          <mxGeometry x="0.0272" y="2" relative="1" as="geometry">
            <mxPoint as="offset" />
          </mxGeometry>
        </mxCell>
        <mxCell id="HGr9DbVzWXyohjFz5z2B-3" value="Text Component (Root)" style="swimlane;whiteSpace=wrap;html=1;" vertex="1" parent="1">
          <mxGeometry x="320" y="-1160" width="200" height="160" as="geometry" />
        </mxCell>
        <mxCell id="HGr9DbVzWXyohjFz5z2B-4" value="Text: &quot;Hello &quot;" style="text;html=1;align=center;verticalAlign=middle;resizable=0;points=[];autosize=1;strokeColor=none;fillColor=none;" vertex="1" parent="HGr9DbVzWXyohjFz5z2B-3">
          <mxGeometry x="55" y="40" width="90" height="30" as="geometry" />
        </mxCell>
        <mxCell id="HGr9DbVzWXyohjFz5z2B-5" value="Style:" style="text;html=1;align=center;verticalAlign=middle;resizable=0;points=[];autosize=1;strokeColor=none;fillColor=none;" vertex="1" parent="HGr9DbVzWXyohjFz5z2B-3">
          <mxGeometry y="78" width="50" height="30" as="geometry" />
        </mxCell>
        <mxCell id="HGr9DbVzWXyohjFz5z2B-6" value="Color: Red&lt;br&gt;Decoration: Bold" style="whiteSpace=wrap;html=1;" vertex="1" parent="HGr9DbVzWXyohjFz5z2B-3">
          <mxGeometry x="50" y="78" width="121" height="42" as="geometry" />
        </mxCell>
        <mxCell id="HGr9DbVzWXyohjFz5z2B-10" value="Text Component" style="swimlane;whiteSpace=wrap;html=1;" vertex="1" parent="1">
          <mxGeometry x="320" y="-880" width="200" height="140" as="geometry" />
        </mxCell>
        <mxCell id="HGr9DbVzWXyohjFz5z2B-12" value="Text: &quot;everybody&quot;" style="text;html=1;align=center;verticalAlign=middle;resizable=0;points=[];autosize=1;strokeColor=none;fillColor=none;" vertex="1" parent="HGr9DbVzWXyohjFz5z2B-10">
          <mxGeometry x="40" y="40" width="120" height="30" as="geometry" />
        </mxCell>
        <mxCell id="HGr9DbVzWXyohjFz5z2B-13" value="Style:" style="text;html=1;align=center;verticalAlign=middle;resizable=0;points=[];autosize=1;strokeColor=none;fillColor=none;" vertex="1" parent="HGr9DbVzWXyohjFz5z2B-10">
          <mxGeometry y="80" width="50" height="30" as="geometry" />
        </mxCell>
        <mxCell id="HGr9DbVzWXyohjFz5z2B-14" value="Color: Blue" style="rounded=0;whiteSpace=wrap;html=1;" vertex="1" parent="HGr9DbVzWXyohjFz5z2B-10">
          <mxGeometry x="50" y="80" width="120" height="40" as="geometry" />
        </mxCell>
      </root>
    </mxGraphModel>
  </diagram>
</mxfile>
